<svg xmlns="http://www.w3.org/2000/svg" width="16" height="16" fill="currentColor" class="bi bi-coursera" viewBox="0 0 16 16">
  <path d="M8 0a8 8 0 1 0 0 16A8 8 0 0 0 8 0M3.2 8.234c0 .862.371 1.539.91 1.932.539.393 1.21.59 1.999.59.86 0 1.539-.24 2.038-.72l-1.138-1.138c-.24.24-.539.36-.899.36-.35 0-.64-.12-.879-.36-.24-.24-.36-.539-.36-.88 0-.34.12-.639.36-.879.24-.24.53-.36.88-.36.36 0 .66.12.9.36l1.138-1.138c-.5-.48-1.178-.72-2.038-.72-.79 0-1.46.197-1.999.59-.539.393-.91 1.07-.91 1.932m6.115 3.332c-.48.48-1.118.72-1.918.72s-1.438-.24-1.918-.72l-.72.72c.6.6 1.419.9 2.458.9.92 0 1.7-.25 2.32-.75l.16.16v.32h.32v-.32l.16-.16c.6-.5.9-1.2.9-2.06 0-.86-.3-1.58-.9-2.18l-.16-.16v-.32h-.32v.32l-.16.16c-.6.6-1.4.9-2.32.9-.92 0-1.7-.25-2.32-.75l-.16-.16v-.32h-.32v.32l-.16.16c-.6.6-1.4.9-2.32.9s-1.72-.3-2.32-.9l-.16-.16v-.32h-.32v.32l-.16.16c-.6.6-.9 1.32-.9 2.18 0 .86.3 1.56.9 2.06l.16.16v.32h.32v-.32l.16-.16c.48-.48 1.118-.72 1.918-.72s1.438.24 1.918.72l.72-.72Z"/>
</svg>
