<svg xmlns="http://www.w3.org/2000/svg" width="16" height="16" fill="currentColor" class="bi bi-credly" viewBox="0 0 16 16">
  <path d="M8 0a8 8 0 1 0 8 8A8 8 0 0 0 8 0M4.28 11.362l3.022-3.022-2.223-2.223L3.02 8.175a5.95 5.95 0 0 1 1.26-2.055L5.5 4.9l-1.22-1.22a5.95 5.95 0 0 1 2.056-1.26L7.558 3.64l2.223-2.223L11.84 3.475a5.95 5.95 0 0 1 2.056 1.26L12.676 6.1l1.22 1.22a5.95 5.95 0 0 1-1.26 2.055L11.416 8.16l-2.223 2.223L7.135 8.325a5.95 5.95 0 0 1-1.26 2.055l-1.22 1.22 1.22 1.22a5.95 5.95 0 0 1-2.056 1.26L4.28 11.362Z"/>
</svg>
